PathFileType	4	(X/Y/Z)	D:\TRACE\v60_Jaco2_6-2-23\v60_baseline_3-v60.trc
DataRate	CameraRate	NumFrames	NumMarkers	Units	OrigDataRate	OrigDataStartFrame	OrigNumFrames
100.00	100.00	      13	9	mm	100.00	813	      6500
Frame#	Time	front left toe			Front right toe			aft left toe			aft right toe			Arm			FL body			FR body			AL Body			AR Body			
		X1	Y1	Z1	X2	Y2	Z2	X3	Y3	Z3	X4	Y4	Z4	X5	Y5	Z5	X6	Y6	Z6	X7	Y7	Z7	X8	Y8	Z8	X9	Y9	Z9	

813	8.120	-161.37677	17.53057	-217.50230	222.90729	146.91104	-231.32889	-132.51453	142.38237	405.35428	237.61024	17.07462	395.40509	-81.23058	1212.49939	-344.55435	-53.33804	581.42291	-354.24472	107.06479	582.25122	-360.10901	-18.83517	555.37244	591.20795	137.70407	550.65265	585.65332	
814	8.130	-161.37387	17.49035	-217.45595	221.82089	142.87492	-229.88464	-132.77541	139.47943	407.05350	237.66339	17.11808	395.39667	-82.17876	1212.35303	-343.88055	-53.97407	581.30780	-353.68021	106.74110	582.20734	-359.93826	-18.86081	555.56860	591.67230	137.98894	550.86469	586.27356	
815	8.140	-161.31053	17.38320	-217.45889	220.86626	137.88879	-228.59799	-133.51149	136.12280	408.88129	237.63289	17.09443	395.38458	-84.05613	1211.74231	-342.50104	-53.74664	580.88110	-353.13708	106.60651	581.98706	-359.15195	-19.00655	555.84259	592.02173	137.94214	550.94415	586.59937	
816	8.150	-161.30287	17.38616	-217.42397	219.64185	132.00688	-227.43080	-134.25766	131.90591	410.89557	237.66682	17.07835	395.39801	-84.36501	1211.83704	-341.76355	-54.23806	580.88501	-352.63531	106.29472	581.91309	-358.83908	-18.78279	555.91888	592.47015	138.16682	550.92609	587.05743	
817	8.160	-161.30464	17.44008	-217.43289	219.06409	125.69520	-226.19008	-134.30083	125.75054	413.04660	237.65823	17.05077	395.39325	-84.15270	1211.92664	-341.50406	-54.69743	580.98669	-351.94568	105.63520	582.03674	-358.51657	-18.36292	555.61584	593.20001	138.29622	550.74066	587.45197	
818	8.170	-161.12225	17.27919	-217.39259	218.49190	119.12325	-225.18529	-136.72641	120.42565	414.34601	237.69003	17.04479	395.38327	-82.29118	1212.51123	-341.20044	-55.27406	581.22113	-351.64185	105.19688	582.08429	-358.05524	-18.62350	555.48883	593.26831	138.29422	550.49756	587.77942	
819	8.180	-161.28702	17.27012	-217.31178	217.78264	111.95722	-224.43655	-138.05272	113.55167	415.77283	237.67531	16.99208	395.34454	-82.60828	1212.50452	-340.77045	-55.78288	581.21069	-351.08951	104.29906	582.03534	-357.34598	-18.44118	555.22296	593.81763	138.26945	550.20581	588.23914	
820	8.190	-161.27257	17.18639	-217.21191	217.01422	104.37090	-223.97226	-139.03758	106.65507	416.38098	237.60701	16.90524	395.31860	-82.94273	1212.36792	-339.90686	-56.39755	581.15796	-350.58282	104.40993	582.08820	-357.02240	-18.41422	555.10876	594.34430	138.18375	549.98792	588.60138	
821	8.200	-161.39664	17.17836	-217.21683	216.27917	96.40238	-223.60725	-140.53737	99.14326	416.94739	237.60715	16.92119	395.38794	-83.62337	1212.60437	-339.06476	-56.68662	581.13104	-350.11890	104.08850	581.93823	-356.65005	-18.15227	555.16846	595.04816	138.20340	549.92914	588.94006	
822	8.210	-161.34784	17.08620	-217.18040	215.11136	87.66214	-222.62332	-141.64636	91.73223	417.25562	237.60590	16.88827	395.36145	-84.08242	1212.74036	-338.35712	-56.22866	580.60718	-349.19067	103.00249	581.76678	-355.95908	-18.26004	554.92145	595.45502	138.58656	550.13702	589.54620	
823	8.220	-161.29848	17.08853	-217.15919	214.33304	78.87756	-221.44493	-143.19043	84.58225	417.74414	237.58244	16.86716	395.37714	-85.10229	1212.73389	-337.98782	-57.63203	581.24609	-348.99335	102.42223	581.92975	-355.59763	-18.47079	554.76648	595.83807	138.55649	549.95508	589.92102	
824	8.230	-161.38049	17.11701	-217.13423	213.43974	70.14467	-220.61476	-144.31612	76.56541	418.33484	237.50630	16.79291	395.39117	-85.43807	1212.67993	-337.45758	-57.90337	581.36310	-348.70959	102.05182	582.04877	-355.09250	-18.29859	554.42572	596.58038	138.40727	549.59613	590.34827	
825	8.240	-161.52124	17.17066	-217.05147	212.75096	61.31800	-219.32970	-145.51096	68.47523	419.10291	237.50537	16.79548	395.42880	-84.92229	1212.42297	-336.60721	-58.46804	581.45984	-347.91611	101.76482	581.90466	-354.46753	-18.23511	554.32336	597.24915	138.13696	549.23511	590.78571	
